<svg width="24" height="24" viewBox="0 0 24 24" fill="none" xmlns="http://www.w3.org/2000/svg">
<path fill-rule="evenodd" clip-rule="evenodd" d="M12 24C5.4 24 0 18.6 0 12C0 5.4 5.4 0 12 0C18.6 0 24 5.4 24 12C24 18.6 18.6 24 12 24ZM12 1.5C6.225 1.5 1.5 6.225 1.5 12C1.5 17.775 6.225 22.5 12 22.5C17.775 22.5 22.5 17.775 22.5 12C22.5 6.225 17.775 1.5 12 1.5ZM10.35 7.9875C10.05 7.9125 9.7125 7.875 9.3375 7.875H5.625V15.975H9.45C9.7875 15.975 10.125 15.9 10.4625 15.825L10.4625 15.825C10.8 15.75 11.1 15.6 11.3625 15.4125C11.625 15.225 11.85 14.9625 12 14.6625C12.15 14.3625 12.225 14.025 12.225 13.6125C12.225 13.0875 12.1125 12.675 11.8875 12.3C11.625 11.9625 11.2875 11.7 10.8 11.55C11.1375 11.3625 11.4 11.1375 11.5875 10.875C11.775 10.6125 11.85 10.275 11.85 9.8625C11.85 9.4875 11.775 9.1875 11.6625 8.925C11.5125 8.7 11.3625 8.475 11.1375 8.325C10.9125 8.175 10.65 8.0625 10.35 7.9875ZM9.8625 10.9125C9.675 11.0625 9.4125 11.1375 9.1125 11.1375V11.1H7.35V9.225H8.9625C9.1125 9.225 9.2625 9.225 9.4125 9.2625C9.5625 9.3 9.675 9.3375 9.7875 9.4125C9.9 9.4875 9.975 9.6 10.05 9.7125C10.125 9.825 10.1625 9.975 10.1625 10.1625C10.1625 10.5 10.05 10.7625 9.8625 10.9125ZM9.1875 14.5875C9.375 14.5875 9.525 14.5875 9.675 14.55C9.825 14.5125 9.975 14.475 10.0875 14.3625C10.2 14.2875 10.3125 14.175 10.35 14.025C10.425 13.875 10.4625 13.725 10.4625 13.5C10.4625 13.0875 10.35 12.7875 10.125 12.6C9.9 12.4125 9.6 12.3375 9.225 12.3375H7.35V14.55H9.1875V14.5875ZM14.6625 14.55C14.8875 14.775 15.225 14.8875 15.675 14.8875C15.975 14.8875 16.275 14.8125 16.5 14.625C16.725 14.475 16.875 14.2875 16.9125 14.1H18.3C18.075 14.8125 17.7375 15.3 17.2875 15.6C16.8375 15.9 16.275 16.05 15.6375 16.05C15.1875 16.05 14.775 15.975 14.4375 15.825C14.0625 15.675 13.7625 15.45 13.5375 15.1875C13.275 14.925 13.0875 14.5875 12.975 14.2125C12.825 13.8375 12.7875 13.425 12.7875 12.975C12.7875 12.525 12.8625 12.1125 13.0125 11.7375C13.1625 11.3625 13.35 11.025 13.6125 10.7625C13.875 10.5 14.175 10.275 14.55 10.125C14.925 9.975 15.3 9.9 15.75 9.9C16.2375 9.9 16.65 10.0125 17.025 10.2C17.4 10.3875 17.6625 10.65 17.925 10.9875C18.15 11.325 18.3375 11.7 18.4125 12.1125C18.525 12.525 18.5625 12.975 18.525 13.425H14.25C14.25 13.875 14.4375 14.325 14.6625 14.55ZM16.4625 11.475C16.275 11.25 15.975 11.1375 15.5625 11.1375C15.3 11.1375 15.1125 11.175 14.925 11.2875C14.775 11.3625 14.625 11.475 14.5125 11.625C14.4 11.7375 14.325 11.8875 14.2875 12.0375C14.2797 12.0688 14.2718 12.0985 14.2644 12.1269L14.2644 12.1269C14.236 12.2345 14.2125 12.3235 14.2125 12.4125H16.7625C16.7625 12 16.65 11.7 16.4625 11.475ZM13.95 8.4H17.1375V9.1875H13.95V8.4Z" fill="#3B72E0"/>
</svg>
