<svg width="56" height="56" viewBox="0 0 56 56" fill="none" xmlns="http://www.w3.org/2000/svg">
<circle cx="28" cy="28" r="28" fill="#FEF8EC"/>
<path d="M35 25C35 26.45 34.57 27.78 33.83 28.89C33.2878 29.6987 32.5825 30.3852 31.7593 30.9053C30.9361 31.4254 30.0133 31.7676 29.05 31.91C28.71 31.97 28.36 32 28 32C27.64 32 27.29 31.97 26.95 31.91C25.9868 31.7676 25.064 31.4254 24.2408 30.9053C23.4176 30.3852 22.7123 29.6987 22.17 28.89C21.4024 27.7383 20.995 26.3841 21 25C21 21.13 24.13 18 28 18C31.87 18 35 21.13 35 25Z" stroke="#F2C94C" stroke-width="1.5" stroke-linecap="round" stroke-linejoin="round"/>
<path d="M37.2497 34.47L35.5997 34.86C35.2297 34.95 34.9397 35.23 34.8597 35.6L34.5097 37.07C34.4667 37.2504 34.3745 37.4154 34.2432 37.5464C34.1119 37.6774 33.9467 37.7693 33.7662 37.8119C33.5856 37.8544 33.3968 37.8459 33.2208 37.7873C33.0449 37.7287 32.8887 37.6223 32.7697 37.48L27.9997 32L23.2297 37.49C23.1107 37.6323 22.9545 37.7387 22.7785 37.7973C22.6025 37.8559 22.4137 37.8644 22.2332 37.8219C22.0526 37.7793 21.8875 37.6874 21.7562 37.5564C21.6249 37.4254 21.5326 37.2604 21.4897 37.08L21.1397 35.61C21.0971 35.4301 21.0054 35.2657 20.8747 35.135C20.744 35.0043 20.5795 34.9125 20.3997 34.87L18.7497 34.48C18.5768 34.4386 18.418 34.3519 18.2897 34.229C18.1613 34.106 18.0679 33.9511 18.0191 33.7802C17.9702 33.6092 17.9677 33.4284 18.0117 33.2562C18.0558 33.0839 18.1448 32.9265 18.2697 32.8L22.1697 28.9C22.7119 29.7087 23.4173 30.3952 24.2404 30.9153C25.0636 31.4354 25.9864 31.7776 26.9497 31.92C27.2897 31.98 27.6397 32.01 27.9997 32.01C28.3597 32.01 28.7097 31.98 29.0497 31.92C31.0397 31.63 32.7497 30.5 33.8297 28.9L37.7297 32.8C38.2797 33.34 38.0097 34.29 37.2497 34.47V34.47ZM28.5797 21.98L29.1697 23.16C29.2497 23.32 29.4597 23.48 29.6497 23.51L30.7197 23.69C31.3997 23.8 31.5597 24.3 31.0697 24.79L30.2397 25.62C30.0997 25.76 30.0197 26.03 30.0697 26.23L30.3097 27.26C30.4997 28.07 30.0697 28.39 29.3497 27.96L28.3497 27.37C28.2481 27.3158 28.1348 27.2875 28.0197 27.2875C27.9046 27.2875 27.7912 27.3158 27.6897 27.37L26.6897 27.96C25.9697 28.38 25.5397 28.07 25.7297 27.26L25.9697 26.23C26.0097 26.04 25.9397 25.76 25.7997 25.62L24.9697 24.79C24.4797 24.3 24.6397 23.81 25.3197 23.69L26.3897 23.51C26.5697 23.48 26.7797 23.32 26.8597 23.16L27.4497 21.98C27.7397 21.34 28.2597 21.34 28.5797 21.98V21.98Z" stroke="#F2C94C" stroke-width="1.5" stroke-linecap="round" stroke-linejoin="round"/>
</svg>
