<svg width="56" height="56" viewBox="0 0 56 56" fill="none" xmlns="http://www.w3.org/2000/svg">
<circle cx="28" cy="28" r="28" fill="#FEECEC"/>
<path d="M24.67 30H20C18.9 30 18 30.9 18 32V38H24.67V30Z" stroke="#EB5757" stroke-width="1.5" stroke-miterlimit="10" stroke-linecap="round" stroke-linejoin="round"/>
<path d="M29.3302 26H26.6602C25.5602 26 24.6602 26.9 24.6602 28V38H31.3302V28C31.3302 27.4696 31.1194 26.9609 30.7444 26.5858C30.3693 26.2107 29.8606 26 29.3302 26ZM36.0002 33H31.3302V38H38.0002V35C38.0002 33.9 37.1002 33 36.0002 33Z" stroke="#EB5757" stroke-width="1.5" stroke-miterlimit="10" stroke-linecap="round" stroke-linejoin="round"/>
<path d="M28.5202 18.0701L29.0502 19.1301C29.1202 19.2801 29.3102 19.4201 29.4702 19.4401L30.4302 19.6001C31.0402 19.7001 31.1902 20.1501 30.7502 20.5801L30.0002 21.3301C29.8702 21.4601 29.8002 21.7001 29.8402 21.8701L30.0502 22.7901C30.2202 23.5201 29.8302 23.8001 29.1902 23.4201L28.2902 22.8901C28.1302 22.7901 27.8602 22.7901 27.7002 22.8901L26.8002 23.4201C26.1602 23.8001 25.7702 23.5201 25.9402 22.7901L26.1502 21.8701C26.1673 21.7738 26.1617 21.6749 26.1339 21.5812C26.1062 21.4875 26.057 21.4015 25.9902 21.3301L25.2502 20.5901C24.8102 20.1501 24.9502 19.7101 25.5702 19.6101L26.5302 19.4501C26.6902 19.4201 26.8802 19.2801 26.9502 19.1401L27.4802 18.0801C27.7702 17.5001 28.2302 17.5001 28.5202 18.0701Z" stroke="#EB5757" stroke-width="1.5" stroke-linecap="round" stroke-linejoin="round"/>
</svg>
