<svg width="56" height="56" viewBox="0 0 56 56" fill="none" xmlns="http://www.w3.org/2000/svg">
<circle cx="28" cy="28" r="28" fill="#ECF2FE"/>
<path d="M20 29H32M34 31C34.5304 31 35.0391 30.7893 35.4142 30.4142C35.7893 30.0391 36 29.5304 36 29C36 28.4696 35.7893 27.9609 35.4142 27.5858C35.0391 27.2107 34.5304 27 34 27C33.4696 27 32.9609 27.2107 32.5858 27.5858C32.2107 27.9609 32 28.4696 32 29C32 29.5304 32.2107 30.0391 32.5858 30.4142C32.9609 30.7893 33.4696 31 34 31V31ZM34 23C34.5304 23 35.0391 22.7893 35.4142 22.4142C35.7893 22.0391 36 21.5304 36 21C36 20.4696 35.7893 19.9609 35.4142 19.5858C35.0391 19.2107 34.5304 19 34 19C33.4696 19 32.9609 19.2107 32.5858 19.5858C32.2107 19.9609 32 20.4696 32 21C32 21.5304 32.2107 22.0391 32.5858 22.4142C32.9609 22.7893 33.4696 23 34 23V23ZM34 39C34.5304 39 35.0391 38.7893 35.4142 38.4142C35.7893 38.0391 36 37.5304 36 37C36 36.4696 35.7893 35.9609 35.4142 35.5858C35.0391 35.2107 34.5304 35 34 35C33.4696 35 32.9609 35.2107 32.5858 35.5858C32.2107 35.9609 32 36.4696 32 37C32 37.5304 32.2107 38.0391 32.5858 38.4142C32.9609 38.7893 33.4696 39 34 39V39ZM18 31C18.5304 31 19.0391 30.7893 19.4142 30.4142C19.7893 30.0391 20 29.5304 20 29C20 28.4696 19.7893 27.9609 19.4142 27.5858C19.0391 27.2107 18.5304 27 18 27C17.4696 27 16.9609 27.2107 16.5858 27.5858C16.2107 27.9609 16 28.4696 16 29C16 29.5304 16.2107 30.0391 16.5858 30.4142C16.9609 30.7893 17.4696 31 18 31V31Z" stroke="#3B72E0" stroke-width="1.5" stroke-linecap="round" stroke-linejoin="round"/>
<path d="M32 21H28C26 21 25 22 25 24V34C25 36 26 37 28 37H32" stroke="#3B72E0" stroke-width="1.5" stroke-linecap="round" stroke-linejoin="round"/>
</svg>
