<svg width="81" height="80" viewBox="0 0 81 80" fill="none" xmlns="http://www.w3.org/2000/svg">
<path d="M80.7134 40C80.7134 17.9086 62.8049 0 40.7134 0C18.6219 0 0.713379 17.9086 0.713379 40C0.713379 62.0914 18.6219 80 40.7134 80C62.8049 80 80.7134 62.0914 80.7134 40Z" fill="#D9E9FE"/>
<path d="M40.8677 58.3072C50.9789 58.3072 59.1754 50.1104 59.1754 39.9995C59.1754 29.8884 50.9789 21.6918 40.8677 21.6918C30.7568 21.6918 22.5601 29.8884 22.5601 39.9995C22.5601 50.1104 30.7568 58.3072 40.8677 58.3072Z" fill="#0164F4"/>
<path d="M40.8663 64.6153C54.461 64.6153 65.4816 53.5948 65.4816 40.0001C65.4816 26.4053 54.461 15.3846 40.8663 15.3846C27.2716 15.3846 16.251 26.4053 16.251 40.0001C16.251 53.5948 27.2716 64.6153 40.8663 64.6153Z" stroke="#0164F4" stroke-width="1.34627"/>
<path d="M46.0478 43.4545C46.0478 44.9478 45.6787 46.1212 44.9403 46.9744C44.2017 47.8114 43.1103 48.3446 41.6663 48.5745V50.8637H39.008V48.6236C38.0234 48.5416 37.1126 48.3121 36.2756 47.9346C35.455 47.557 34.7332 46.9829 34.1094 46.2115L36.2263 44.3161C36.5873 44.8084 37.0387 45.194 37.5801 45.4731C38.1381 45.7354 38.7288 45.9078 39.3524 45.9898V41.2638C37.7607 40.8863 36.5628 40.3366 35.7588 39.6146C34.9709 38.8924 34.5772 37.8998 34.5772 36.6361C34.5772 35.2246 34.9463 34.1337 35.6849 33.3623C36.4396 32.5745 37.5472 32.0904 39.008 31.9099V29.6454H41.6663V31.9099C43.4225 32.1069 44.7924 32.8044 45.777 34.0023L43.734 35.8483C43.4225 35.4707 43.0612 35.1837 42.6509 34.9869C42.2409 34.7736 41.7979 34.626 41.3217 34.5437V38.8268C42.1586 39.04 42.8724 39.2782 43.4634 39.5408C44.0541 39.8031 44.538 40.1151 44.9156 40.476C45.3095 40.8369 45.5964 41.2638 45.777 41.7561C45.9577 42.232 46.0478 42.7983 46.0478 43.4545ZM37.7526 36.4391C37.7526 36.9314 37.8839 37.3336 38.1463 37.6454C38.4255 37.9407 38.8274 38.1706 39.3524 38.3345V34.5437C38.811 34.626 38.4089 34.8145 38.1463 35.1098C37.8839 35.4053 37.7526 35.8483 37.7526 36.4391ZM42.9218 43.8483C42.9218 42.7816 42.3885 42.0761 41.3217 41.7314V45.916C42.3885 45.6698 42.9218 44.9808 42.9218 43.8483Z" fill="#F6F7F9"/>
<path d="M65.7113 32.9509L71.1381 43.6929H60.2847L65.7113 32.9509Z" fill="#F6F7F9" stroke="#0164F4" stroke-width="1.34627"/>
<path d="M16.0225 54.8961L21.4494 44.1542H10.5957L16.0225 54.8961Z" fill="#F6F7F9" stroke="#0164F4" stroke-width="1.34627"/>
</svg>
