<svg width="80" height="80" viewBox="0 0 80 80" fill="none" xmlns="http://www.w3.org/2000/svg">
<path d="M80 40C80 17.9086 62.0915 0 40 0C17.9087 0 0 17.9086 0 40C0 62.0914 17.9087 80 40 80C62.0915 80 80 62.0914 80 40Z" fill="#FFE2E2"/>
<path d="M21.5409 58.4611H12.3101V39.9993" stroke="black" stroke-width="0.673134" stroke-dasharray="1.08 1.08"/>
<path d="M55.3857 58.4611H64.6166V39.9993" stroke="black" stroke-width="0.673134" stroke-dasharray="1.08 1.08"/>
<path d="M15.4017 31.2305H9.21111C7.77529 31.2305 6.61133 32.4015 6.61133 33.8459C6.61133 35.2904 7.77529 36.4613 9.21111 36.4613H15.4017C16.8375 36.4613 18.0015 35.2904 18.0015 33.8459C18.0015 32.4015 16.8375 31.2305 15.4017 31.2305Z" fill="#FFB6B5" stroke="black" stroke-width="0.403881"/>
<path d="M67.7127 31.2305H61.5221C60.0863 31.2305 58.9224 32.4015 58.9224 33.8459C58.9224 35.2904 60.0863 36.4613 61.5221 36.4613H67.7127C69.1486 36.4613 70.3125 35.2904 70.3125 33.8459C70.3125 32.4015 69.1486 31.2305 67.7127 31.2305Z" fill="#F95554" stroke="black" stroke-width="0.403881"/>
<path d="M45.821 15.3844H33.6545C33.6545 15.3844 28.07 30.7689 32.4379 30.7689H47.0376C52.6012 30.7689 45.821 15.3844 45.821 15.3844Z" fill="#A3C9FF" stroke="black" stroke-width="0.538507"/>
<path d="M36.9229 18.4615L37.5924 11.4317C37.7112 10.1836 38.7535 9.23077 39.9999 9.23077C41.2462 9.23077 42.2883 10.1836 42.4072 11.4317L43.0767 18.4615" stroke="black" stroke-width="0.538507"/>
<path d="M42.303 61.539H17.6865L17.8546 60.0826C18.3392 55.8821 20.9337 52.2257 24.7255 50.4L27.1543 49.2308H32.8352L36.0433 50.6208C38.7811 51.8072 40.7756 54.258 41.3913 57.1924L42.303 61.539Z" fill="#FFB6B5"/>
<path d="M17.6865 61.539L17.8615 60.0232C18.342 55.8595 20.9135 52.2355 24.6719 50.4261C26.306 49.6392 28.0949 49.2308 29.9067 49.2308H30.4872C32.0361 49.2308 33.569 49.5487 34.9916 50.1651C38.389 51.6374 40.8637 54.6783 41.6278 58.3196L42.303 61.539" stroke="black" stroke-width="0.538507"/>
<path d="M34.6585 43.0768C34.6585 46.2244 32.4889 48.6155 29.9953 48.6155C27.5019 48.6155 25.332 46.2244 25.332 43.0768C25.332 39.9292 27.5019 37.5381 29.9953 37.5381C32.4889 37.5381 34.6585 39.9292 34.6585 43.0768Z" fill="white" stroke="black" stroke-width="0.538507"/>
<path d="M61.6448 61.539H37.0283L37.3909 58.3955C37.7544 55.2449 39.7005 52.5027 42.5442 51.1335L46.4961 49.2308H52.177L53.9295 49.9903C57.5802 51.5721 60.2394 54.8397 61.0602 58.7522L61.6448 61.539Z" fill="#F95554"/>
<path d="M37.0283 61.539L37.2033 60.0232C37.6835 55.8595 40.2553 52.2355 44.0134 50.4261C45.6478 49.6392 47.4367 49.2308 49.2485 49.2308H49.829C51.3779 49.2308 52.9105 49.5487 54.3332 50.1651C57.7308 51.6374 60.2055 54.6783 60.9693 58.3196L61.6448 61.539" stroke="black" stroke-width="0.538507"/>
<path d="M53.9964 43.0768C53.9964 46.2244 51.8266 48.6155 49.3332 48.6155C46.8396 48.6155 44.6699 46.2244 44.6699 43.0768C44.6699 39.9292 46.8396 37.5381 49.3332 37.5381C51.8266 37.5381 53.9964 39.9292 53.9964 43.0768Z" fill="white" stroke="black" stroke-width="0.538507"/>
</svg>
