<svg width="80" height="80" viewBox="0 0 80 80" fill="none" xmlns="http://www.w3.org/2000/svg">
<path d="M80 39.9999C80 17.9085 62.0913 0 40.0001 0C17.9087 0 0 17.9085 0 39.9999C0 62.0916 17.9087 80 40.0001 80C62.0913 80 80 62.0916 80 39.9999Z" fill="#D9E9FE"/>
<path d="M48.0277 41.759C48.0277 43.9991 47.4738 45.7589 46.366 47.0391C45.2585 48.2945 43.6216 49.0944 41.4554 49.4391V52.8729H37.4676V49.5129C35.9909 49.3897 34.6246 49.0453 33.3693 48.4789C32.1385 47.9128 31.0554 47.0514 30.1201 45.8945L33.2953 43.0513C33.8369 43.7897 34.5139 44.3682 35.3261 44.7867C36.1631 45.1805 37.0493 45.439 37.9846 45.5622V38.4729C35.5969 37.9068 33.8001 37.0822 32.594 35.9991C31.4124 34.916 30.8214 33.4267 30.8214 31.5313C30.8214 29.4145 31.3753 27.7773 32.4831 26.6204C33.6154 25.439 35.2768 24.7129 37.4676 24.4421V21.0451H41.4554V24.4421C44.0892 24.7374 46.1445 25.7837 47.6215 27.5806L44.5569 30.3497C44.0892 29.7836 43.5478 29.3528 42.9323 29.0575C42.3169 28.7375 41.6524 28.5158 40.9385 28.3928V34.8175C42.1937 35.1374 43.2647 35.4944 44.1507 35.8882C45.037 36.282 45.7631 36.7499 46.3292 37.2913C46.9199 37.833 47.3507 38.4729 47.6215 39.2114C47.8923 39.9251 48.0277 40.7744 48.0277 41.759ZM35.5846 31.2358C35.5846 31.9745 35.7816 32.5774 36.1753 33.0453C36.5938 33.4882 37.197 33.8328 37.9846 34.079V28.3928C37.1722 28.5158 36.5693 28.799 36.1753 29.2421C35.7816 29.6851 35.5846 30.3497 35.5846 31.2358ZM43.3385 42.3499C43.3385 40.7498 42.5384 39.6913 40.9385 39.1744V45.4513C42.5384 45.0822 43.3385 44.0482 43.3385 42.3499Z" fill="#1C75BC"/>
<path d="M39.9997 57.692C51.4703 57.692 60.7689 48.3931 60.7689 36.9225C60.7689 25.4521 51.4703 16.1533 39.9997 16.1533C28.5292 16.1533 19.2305 25.4521 19.2305 36.9225C19.2305 48.3931 28.5292 57.692 39.9997 57.692Z" stroke="#57585A" stroke-width="2.0194"/>
<path d="M47.8358 50.8693L49.0203 63.9016C49.2244 66.1465 52.0883 66.9592 53.441 65.1555L55.2432 62.7527L58.0733 67.4693C58.8968 68.8425 60.792 69.0758 61.9243 67.9436L63.5126 66.3552C64.4738 65.3939 64.4738 63.8351 63.5126 62.8741L59.6613 59.0225L63.0446 57.6692C65.1079 56.8442 65.1079 53.9235 63.0446 53.0982L51.2013 48.361C49.4947 47.6783 47.6693 49.0389 47.8358 50.8693Z" fill="#1C75BC" stroke="#D9E9FE" stroke-width="1.34627"/>
</svg>
