<svg width="52" height="40" viewBox="0 0 52 40" fill="none" xmlns="http://www.w3.org/2000/svg">
<path d="M28.8525 40V28.5902C28.8525 20.8962 30.7322 14.6011 34.4918 9.70492C38.2514 4.72131 43.8033 1.48634 51.1475 0V9.83607C48.0874 10.5355 45.5519 11.847 43.541 13.7705C41.6175 15.6066 40.3497 17.7924 39.7377 20.3279H48.5246V40H28.8525ZM0 40V28.5902C0 20.8962 1.87978 14.6011 5.63934 9.70492C9.39891 4.72131 14.9508 1.48634 22.2951 0V9.83607C19.235 10.5355 16.6995 11.847 14.6885 13.7705C12.765 15.6066 11.4973 17.7924 10.8852 20.3279H19.6721V40H0Z" fill="#3569D4"/>
</svg>
